HIERARCHY
ROOT mixamorig:Hips
{
	OFFSET -0.000008 104.274872 1.554316
	CHANNELS 6 Xposition Yposition Zposition Xrotation Yrotation Zrotation
	JOINT mixamorig:Spine
	{
		OFFSET -0.000005 10.181595 0.131519
		CHANNELS 6 Xposition Yposition Zposition Xrotation Yrotation Zrotation
		JOINT mixamorig:Spine1
		{
			OFFSET -0.000000 9.893959 -1.470707
			CHANNELS 6 Xposition Yposition Zposition Xrotation Yrotation Zrotation
			JOINT mixamorig:Spine2
			{
				OFFSET -0.000000 9.220757 -1.370641
				CHANNELS 6 Xposition Yposition Zposition Xrotation Yrotation Zrotation
				JOINT mixamorig:Neck
				{
					OFFSET 0.000001 16.740417 -2.049036
					CHANNELS 6 Xposition Yposition Zposition Xrotation Yrotation Zrotation
					JOINT mixamorig:Head
					{
						OFFSET 0.000000 9.617874 1.685006
						CHANNELS 6 Xposition Yposition Zposition Xrotation Yrotation Zrotation
						JOINT mixamorig:HeadTop_End
						{
							OFFSET 0.000002 22.037354 7.501101
							CHANNELS 6 Xposition Yposition Zposition Xrotation Yrotation Zrotation
							End Site
							{
								OFFSET 0.000168 2310.654297 -282.823242
							}
						}
					}
				}
				JOINT mixamorig:RightShoulder
				{
					OFFSET -4.569970 11.014908 -2.160885
					CHANNELS 6 Xposition Yposition Zposition Xrotation Yrotation Zrotation
					JOINT mixamorig:RightArm
					{
						OFFSET -10.592851 -0.524811 -2.232101
						CHANNELS 6 Xposition Yposition Zposition Xrotation Yrotation Zrotation
						JOINT mixamorig:RightForeArm
						{
							OFFSET -27.841511 0.000031 -0.000004
							CHANNELS 6 Xposition Yposition Zposition Xrotation Yrotation Zrotation
							JOINT mixamorig:RightHand
							{
								OFFSET -28.328831 -0.000015 0.000015
								CHANNELS 6 Xposition Yposition Zposition Xrotation Yrotation Zrotation
								JOINT mixamorig:RightHandThumb1
								{
									OFFSET -2.464806 -1.573990 2.681852
									CHANNELS 6 Xposition Yposition Zposition Xrotation Yrotation Zrotation
									JOINT mixamorig:RightHandThumb2
									{
										OFFSET -3.215179 -1.872803 1.924282
										CHANNELS 6 Xposition Yposition Zposition Xrotation Yrotation Zrotation
										JOINT mixamorig:RightHandThumb3
										{
											OFFSET -2.654831 -1.527969 1.512609
											CHANNELS 6 Xposition Yposition Zposition Xrotation Yrotation Zrotation
											JOINT mixamorig:RightHandThumb4
											{
												OFFSET -2.018814 -1.152008 1.108052
												CHANNELS 6 Xposition Yposition Zposition Xrotation Yrotation Zrotation
												End Site
												{
													OFFSET -188.809540 -114.533607 132.431396
												}
											}
										}
									}
								}
								JOINT mixamorig:RightHandIndex1
								{
									OFFSET -9.108284 -0.517868 2.259835
									CHANNELS 6 Xposition Yposition Zposition Xrotation Yrotation Zrotation
									JOINT mixamorig:RightHandIndex2
									{
										OFFSET -3.699989 0.000000 0.001215
										CHANNELS 6 Xposition Yposition Zposition Xrotation Yrotation Zrotation
										JOINT mixamorig:RightHandIndex3
										{
											OFFSET -2.850006 0.000031 -0.000522
											CHANNELS 6 Xposition Yposition Zposition Xrotation Yrotation Zrotation
											JOINT mixamorig:RightHandIndex4
											{
												OFFSET -2.772186 -0.000015 -0.000020
												CHANNELS 6 Xposition Yposition Zposition Xrotation Yrotation Zrotation
												End Site
												{
													OFFSET -277.218445 0.000000 -0.050231
												}
											}
										}
									}
								}
								JOINT mixamorig:RightHandMiddle1
								{
									OFFSET -9.532516 -0.000031 -0.000023
									CHANNELS 6 Xposition Yposition Zposition Xrotation Yrotation Zrotation
									JOINT mixamorig:RightHandMiddle2
									{
										OFFSET -3.700005 -0.000015 0.003713
										CHANNELS 6 Xposition Yposition Zposition Xrotation Yrotation Zrotation
										JOINT mixamorig:RightHandMiddle3
										{
											OFFSET -2.949974 0.000015 -0.002054
											CHANNELS 6 Xposition Yposition Zposition Xrotation Yrotation Zrotation
											JOINT mixamorig:RightHandMiddle4
											{
												OFFSET -2.946640 0.000000 -0.000156
												CHANNELS 6 Xposition Yposition Zposition Xrotation Yrotation Zrotation
												End Site
												{
													OFFSET -294.664337 0.000000 -0.113670
												}
											}
										}
									}
								}
								JOINT mixamorig:RightHandRing1
								{
									OFFSET -9.103600 -0.043076 -1.865134
									CHANNELS 6 Xposition Yposition Zposition Xrotation Yrotation Zrotation
									JOINT mixamorig:RightHandRing2
									{
										OFFSET -3.379288 0.000000 -0.001055
										CHANNELS 6 Xposition Yposition Zposition Xrotation Yrotation Zrotation
										JOINT mixamorig:RightHandRing3
										{
											OFFSET -2.889687 -0.000015 0.000379
											CHANNELS 6 Xposition Yposition Zposition Xrotation Yrotation Zrotation
											JOINT mixamorig:RightHandRing4
											{
												OFFSET -2.638809 -0.000015 0.000941
												CHANNELS 6 Xposition Yposition Zposition Xrotation Yrotation Zrotation
												End Site
												{
													OFFSET -263.880371 0.000000 0.516020
												}
											}
										}
									}
								}
								JOINT mixamorig:RightHandPinky1
								{
									OFFSET -8.076683 -0.486710 -3.806280
									CHANNELS 6 Xposition Yposition Zposition Xrotation Yrotation Zrotation
									JOINT mixamorig:RightHandPinky2
									{
										OFFSET -3.600014 -0.000015 -0.003747
										CHANNELS 6 Xposition Yposition Zposition Xrotation Yrotation Zrotation
										JOINT mixamorig:RightHandPinky3
										{
											OFFSET -2.099983 0.000000 -0.005739
											CHANNELS 6 Xposition Yposition Zposition Xrotation Yrotation Zrotation
											JOINT mixamorig:RightHandPinky4
											{
												OFFSET -2.115768 -0.000031 -0.003680
												CHANNELS 6 Xposition Yposition Zposition Xrotation Yrotation Zrotation
												End Site
												{
													OFFSET -211.577087 0.000000 -0.350686
												}
											}
										}
									}
								}
							}
						}
					}
				}
				JOINT mixamorig:LeftShoulder
				{
					OFFSET 4.570447 11.014725 -2.160855
					CHANNELS 6 Xposition Yposition Zposition Xrotation Yrotation Zrotation
					JOINT mixamorig:LeftArm
					{
						OFFSET 10.592371 -0.524597 -2.232119
						CHANNELS 6 Xposition Yposition Zposition Xrotation Yrotation Zrotation
						JOINT mixamorig:LeftForeArm
						{
							OFFSET 27.841532 -0.000031 0.000026
							CHANNELS 6 Xposition Yposition Zposition Xrotation Yrotation Zrotation
							JOINT mixamorig:LeftHand
							{
								OFFSET 28.328846 -0.000061 0.000022
								CHANNELS 6 Xposition Yposition Zposition Xrotation Yrotation Zrotation
								JOINT mixamorig:LeftHandThumb1
								{
									OFFSET 2.466141 -1.576172 2.681732
									CHANNELS 6 Xposition Yposition Zposition Xrotation Yrotation Zrotation
									JOINT mixamorig:LeftHandThumb2
									{
										OFFSET 3.217812 -1.872070 1.916482
										CHANNELS 6 Xposition Yposition Zposition Xrotation Yrotation Zrotation
										JOINT mixamorig:LeftHandThumb3
										{
											OFFSET 2.656029 -1.528778 1.514513
											CHANNELS 6 Xposition Yposition Zposition Xrotation Yrotation Zrotation
											JOINT mixamorig:LeftHandThumb4
											{
												OFFSET 2.020889 -1.154053 1.115139
												CHANNELS 6 Xposition Yposition Zposition Xrotation Yrotation Zrotation
												End Site
												{
													OFFSET 190.885437 -115.081749 130.048782
												}
											}
										}
									}
								}
								JOINT mixamorig:LeftHandIndex1
								{
									OFFSET 9.109314 -0.518021 2.259871
									CHANNELS 6 Xposition Yposition Zposition Xrotation Yrotation Zrotation
									JOINT mixamorig:LeftHandIndex2
									{
										OFFSET 3.699989 0.000000 -0.000322
										CHANNELS 6 Xposition Yposition Zposition Xrotation Yrotation Zrotation
										JOINT mixamorig:LeftHandIndex3
										{
											OFFSET 2.850006 0.000000 0.000352
											CHANNELS 6 Xposition Yposition Zposition Xrotation Yrotation Zrotation
											JOINT mixamorig:LeftHandIndex4
											{
												OFFSET 2.774864 -0.000031 -0.000027
												CHANNELS 6 Xposition Yposition Zposition Xrotation Yrotation Zrotation
												End Site
												{
													OFFSET 277.486267 0.000000 -0.009857
												}
											}
										}
									}
								}
								JOINT mixamorig:LeftHandMiddle1
								{
									OFFSET 9.533394 0.000061 0.000044
									CHANNELS 6 Xposition Yposition Zposition Xrotation Yrotation Zrotation
									JOINT mixamorig:LeftHandMiddle2
									{
										OFFSET 3.699989 -0.000015 -0.000231
										CHANNELS 6 Xposition Yposition Zposition Xrotation Yrotation Zrotation
										JOINT mixamorig:LeftHandMiddle3
										{
											OFFSET 2.949997 -0.000015 -0.000059
											CHANNELS 6 Xposition Yposition Zposition Xrotation Yrotation Zrotation
											JOINT mixamorig:LeftHandMiddle4
											{
												OFFSET 2.952896 0.000031 0.000063
												CHANNELS 6 Xposition Yposition Zposition Xrotation Yrotation Zrotation
												End Site
												{
													OFFSET 295.289337 0.000000 0.022810
												}
											}
										}
									}
								}
								JOINT mixamorig:LeftHandRing1
								{
									OFFSET 9.104523 -0.042999 -1.865074
									CHANNELS 6 Xposition Yposition Zposition Xrotation Yrotation Zrotation
									JOINT mixamorig:LeftHandRing2
									{
										OFFSET 3.150009 -0.000031 0.000043
										CHANNELS 6 Xposition Yposition Zposition Xrotation Yrotation Zrotation
										JOINT mixamorig:LeftHandRing3
										{
											OFFSET 2.949982 -0.000015 0.000040
											CHANNELS 6 Xposition Yposition Zposition Xrotation Yrotation Zrotation
											JOINT mixamorig:LeftHandRing4
											{
												OFFSET 2.644348 0.000000 0.000057
												CHANNELS 6 Xposition Yposition Zposition Xrotation Yrotation Zrotation
												End Site
												{
													OFFSET 264.434631 0.000000 0.012105
												}
											}
										}
									}
								}
								JOINT mixamorig:LeftHandPinky1
								{
									OFFSET 8.077789 -0.486847 -3.806259
									CHANNELS 6 Xposition Yposition Zposition Xrotation Yrotation Zrotation
									JOINT mixamorig:LeftHandPinky2
									{
										OFFSET 3.599953 0.000031 0.014727
										CHANNELS 6 Xposition Yposition Zposition Xrotation Yrotation Zrotation
										JOINT mixamorig:LeftHandPinky3
										{
											OFFSET 2.100021 0.000015 0.007705
											CHANNELS 6 Xposition Yposition Zposition Xrotation Yrotation Zrotation
											JOINT mixamorig:LeftHandPinky4
											{
												OFFSET 2.125504 0.000031 0.007517
												CHANNELS 6 Xposition Yposition Zposition Xrotation Yrotation Zrotation
												End Site
												{
													OFFSET 212.550781 0.000000 0.625752
												}
											}
										}
									}
								}
							}
						}
					}
				}
			}
		}
	}
	JOINT mixamorig:RightUpLeg
	{
		OFFSET -8.207787 -6.751648 -1.599560
		CHANNELS 6 Xposition Yposition Zposition Xrotation Yrotation Zrotation
		JOINT mixamorig:RightLeg
		{
			OFFSET -0.000002 -44.370117 0.345942
			CHANNELS 6 Xposition Yposition Zposition Xrotation Yrotation Zrotation
			JOINT mixamorig:RightFoot
			{
				OFFSET 0.000003 -44.423679 -3.043532
				CHANNELS 6 Xposition Yposition Zposition Xrotation Yrotation Zrotation
				JOINT mixamorig:RightToeBase
				{
					OFFSET -0.000002 -8.728671 10.710558
					CHANNELS 6 Xposition Yposition Zposition Xrotation Yrotation Zrotation
					JOINT mixamorig:RightToe_End
					{
						OFFSET -0.000001 -0.000679 9.278119
						CHANNELS 6 Xposition Yposition Zposition Xrotation Yrotation Zrotation
						End Site
						{
							OFFSET 0.000000 -0.067690 927.812134
						}
					}
				}
			}
		}
	}
	JOINT mixamorig:LeftUpLeg
	{
		OFFSET 8.207793 -6.751686 -1.599556
		CHANNELS 6 Xposition Yposition Zposition Xrotation Yrotation Zrotation
		JOINT mixamorig:LeftLeg
		{
			OFFSET -0.000004 -44.370014 0.346954
			CHANNELS 6 Xposition Yposition Zposition Xrotation Yrotation Zrotation
			JOINT mixamorig:LeftFoot
			{
				OFFSET -0.000001 -44.423672 -3.044401
				CHANNELS 6 Xposition Yposition Zposition Xrotation Yrotation Zrotation
				JOINT mixamorig:LeftToeBase
				{
					OFFSET -0.000002 -8.728669 10.710558
					CHANNELS 6 Xposition Yposition Zposition Xrotation Yrotation Zrotation
					JOINT mixamorig:LeftToe_End
					{
						OFFSET -0.000003 -0.000679 9.278133
						CHANNELS 6 Xposition Yposition Zposition Xrotation Yrotation Zrotation
						End Site
						{
							OFFSET 0.000000 -0.068021 927.813477
						}
					}
				}
			}
		}
	}
}
MOTION
Frames: 3
Frame Time: 0.033333
0.000006 104.270477 1.554256 0.000010 0.000003 -0.000113 -0.000005 10.181587 0.131522 0.000001 -0.000003 0.000084 -0.000000 9.893967 -1.470711 0.000001 0.000000 -0.000000 -0.000000 9.220802 -1.370642 0.000000 -0.000000 -0.000000 0.000001 16.740433 -2.049030 0.000000 -0.000000 -0.000000 0.000000 9.617859 1.685014 0.000000 0.000000 0.000000 0.000002 22.037384 7.501101 0.000000 -0.000000 0.000000 -4.569968 11.014880 -2.160881 0.000008 0.000001 -0.000038 -10.592868 -0.524780 -2.231884 75.570907 33.226958 -26.048900 -27.841530 0.000031 0.000554 -54.961258 107.898486 71.097304 -28.328814 0.000023 0.000030 -0.000320 -0.000043 0.000007 -2.464513 -1.573632 2.682254 123.613187 6.106653 132.422628 -3.215285 -1.872612 1.924667 152.664563 29.852124 -6.386282 -2.654965 -1.527880 1.513079 146.881155 26.901699 -37.611208 -2.018831 -1.151983 1.108065 0.000001 -0.000001 0.000004 -9.108374 -0.517548 2.260109 98.023282 14.652214 -16.885433 -3.700076 0.000305 0.001503 94.324359 13.198976 -14.199203 -2.850086 0.000370 -0.000267 96.057670 10.722253 -11.911122 -2.772170 -0.000015 -0.000021 0.000000 -0.000002 -0.000001 -9.532565 0.000287 0.000251 96.812788 13.346562 -15.173467 -3.700078 0.000336 0.003994 97.042132 11.340419 -12.709858 -2.950068 0.000320 -0.001802 98.255331 10.741667 -12.392358 -2.946617 0.000001 -0.000154 -0.000001 -0.000001 0.000000 -9.103685 -0.042763 -1.864852 97.972049 14.951839 -17.110343 -3.379314 0.000335 -0.000774 99.649106 9.092074 -10.779679 -2.889748 0.000356 0.000674 103.971346 6.250468 -8.048837 -2.638806 0.000001 0.000941 -0.000001 -0.000002 -0.000001 -8.076743 -0.486380 -3.805994 93.893982 14.645973 -15.507287 -3.600018 0.000299 -0.003489 96.812235 5.892379 -6.250477 -2.099984 0.000334 -0.005464 98.345633 3.252354 -3.518884 -2.115773 -0.000056 -0.003680 0.000001 -0.000000 -0.000004 4.570446 11.014691 -2.160851 -0.000018 0.000010 -0.000021 10.592402 -0.524468 -2.232376 75.407597 -13.645147 10.567798 27.841835 0.000081 -0.000205 107.227741 -68.617822 85.601333 28.328831 -0.000029 0.000022 0.000026 -0.000089 0.000000 2.465853 -1.576025 2.681880 124.616105 -1.169696 -140.863404 3.217838 -1.871789 1.916371 149.933608 -27.675754 22.285340 2.656105 -1.528625 1.514448 137.385430 -28.646626 39.195123 2.020895 -1.154071 1.115149 0.000001 0.000002 0.000001 9.109370 -0.517843 2.259724 87.094973 -13.340836 12.675076 3.700031 0.000158 -0.000468 86.591663 -13.840327 13.063773 2.850054 0.000185 0.000198 84.838592 -12.892925 11.787820 2.774888 -0.000016 -0.000026 -0.000000 -0.000001 -0.000000 9.533455 0.000253 -0.000106 89.476557 -12.254879 12.135835 3.700064 0.000180 -0.000375 87.691064 -13.233780 12.712706 2.950068 0.000143 -0.000188 86.242695 -16.821188 15.769512 2.952852 -0.000017 0.000064 -0.000000 -0.000000 -0.000001 9.104573 -0.042814 -1.865210 89.039432 -13.992349 13.763838 3.150058 0.000185 -0.000094 89.909134 -15.151465 15.129612 2.950035 0.000178 -0.000055 94.464569 -15.824276 17.091720 2.644316 0.000014 0.000065 0.000002 0.000001 0.000000 8.077843 -0.486741 -3.806385 73.171619 -18.832481 14.489772 3.599986 0.000157 0.014570 73.057083 -14.001590 10.780274 2.100029 0.000167 0.007536 76.145408 -12.337762 10.061323 2.125511 -0.000015 0.007510 0.000001 0.000001 -0.000000 -8.207786 -6.751667 -1.599560 -0.077001 -0.000003 0.000080 -0.000002 -44.370110 0.345938 0.153719 -0.000000 -0.000000 0.000000 -44.423679 -3.043532 -0.076700 0.000000 -0.000002 -0.000006 -8.728667 10.710559 -0.000009 -0.000000 -0.000000 -0.000001 -0.000679 9.278123 0.000000 -0.000000 -0.000000 8.207792 -6.751710 -1.599556 -0.074518 -0.000003 0.000081 -0.000002 -44.370014 0.346960 0.148822 0.000002 0.000000 -0.000001 -44.423664 -3.044403 -0.074314 0.000000 -0.000002 -0.000004 -8.728671 10.710558 0.000007 -0.000000 -0.000000 0.000000 -0.000680 9.278137 -0.000000 0.000000 -0.000001 
0.000006 104.270477 1.554256 0.000010 0.000003 -0.000113 -0.000005 10.181587 0.131522 0.000001 -0.000003 0.000084 -0.000000 9.893967 -1.470711 0.000001 0.000000 -0.000000 -0.000000 9.220802 -1.370642 0.000000 -0.000000 -0.000000 0.000001 16.740433 -2.049030 0.000000 -0.000000 -0.000000 0.000000 9.617859 1.685014 0.000000 0.000000 0.000000 0.000002 22.037384 7.501101 0.000000 -0.000000 0.000000 -4.569968 11.014880 -2.160881 0.000008 0.000001 -0.000038 -10.592875 -0.524765 -2.231895 76.807444 29.762467 -23.790036 -27.841511 0.000013 0.000545 -49.319741 105.629661 62.361867 -28.328835 0.000019 0.000033 -0.000319 -0.000045 0.000006 -2.464430 -1.573725 2.682281 126.410245 -10.977635 153.871881 -3.215270 -1.872558 1.924616 148.367527 32.183121 15.573041 -2.654957 -1.527832 1.513041 149.950642 28.758498 -16.198437 -2.018830 -1.152013 1.108064 -0.000003 -0.000000 0.000003 -9.108356 -0.517553 2.260133 101.935779 13.743080 -16.965729 -3.700070 0.000307 0.001516 97.453132 13.557237 -15.398118 -2.850091 0.000365 -0.000259 96.576710 11.373425 -12.748190 -2.772161 -0.000013 -0.000022 -0.000000 -0.000001 -0.000001 -9.532578 0.000280 0.000258 98.417951 12.885807 -15.070976 -3.700071 0.000323 0.004000 99.206100 13.031146 -15.176078 -2.950062 0.000344 -0.001791 100.327453 12.034764 -14.394403 -2.946626 0.000001 -0.000153 -0.000002 0.000001 0.000000 -9.103682 -0.042743 -1.864851 97.346991 14.220562 -16.098406 -3.379325 0.000304 -0.000769 100.235492 10.260365 -12.285749 -2.889761 0.000350 0.000681 104.571590 8.196285 -10.647129 -2.638829 -0.000015 0.000936 0.000000 -0.000002 -0.000001 -8.076741 -0.486369 -3.805998 93.037224 15.825507 -16.519041 -3.600038 0.000299 -0.003500 95.122590 7.032960 -7.308944 -2.100019 0.000329 -0.005463 98.025946 4.023362 -4.383306 -2.115783 -0.000050 -0.003676 -0.000002 0.000002 -0.000003 4.570446 11.014691 -2.160851 -0.000018 0.000010 -0.000021 10.592421 -0.524461 -2.232377 75.026548 -18.043441 13.899035 27.841829 0.000051 -0.000198 110.740521 -73.362481 94.328546 28.328823 -0.000028 0.000018 0.000023 -0.000089 0.000001 2.466057 -1.576180 2.681910 145.047755 17.017343 -201.658658 3.217853 -1.871820 1.916420 159.996321 -23.821198 36.325757 2.656108 -1.528660 1.514466 142.180565 -26.938174 50.719499 2.020899 -1.154072 1.115147 0.000000 0.000001 0.000002 9.109401 -0.517854 2.259738 92.111911 -20.289649 21.021654 3.700054 0.000160 -0.000466 88.718126 -12.814899 12.550132 2.850068 0.000220 0.000194 87.592948 -9.748212 9.347650 2.774870 -0.000046 -0.000028 0.000001 -0.000001 0.000001 9.533489 0.000221 -0.000080 91.949106 -18.726584 19.353278 3.700055 0.000195 -0.000372 92.447731 -10.461804 10.913132 2.950065 0.000181 -0.000198 93.215505 -10.797832 11.420511 2.952880 -0.000015 0.000065 -0.000001 -0.000002 0.000000 9.104603 -0.042834 -1.865216 91.337531 -18.686119 19.121489 3.150047 0.000221 -0.000101 95.044944 -11.720313 12.793947 2.950023 0.000190 -0.000081 96.275724 -10.391243 11.590782 2.644332 0.000014 0.000058 0.000001 -0.000001 0.000001 8.077871 -0.486727 -3.806405 80.149210 -21.497879 18.669815 3.600010 0.000169 0.014574 80.167030 -17.288950 15.032165 2.100046 0.000181 0.007543 80.439391 -13.084026 11.493041 2.125519 -0.000016 0.007516 -0.000000 -0.000003 0.000000 -8.207786 -6.751667 -1.599560 -0.077001 -0.000003 0.000080 -0.000002 -44.370110 0.345938 0.153719 -0.000000 -0.000000 0.000000 -44.423679 -3.043532 -0.076700 0.000000 -0.000002 -0.000006 -8.728667 10.710559 -0.000009 -0.000000 -0.000000 -0.000001 -0.000679 9.278123 0.000000 -0.000000 -0.000000 8.207792 -6.751710 -1.599556 -0.074518 -0.000003 0.000081 -0.000002 -44.370014 0.346960 0.148822 0.000002 0.000000 -0.000001 -44.423664 -3.044403 -0.074314 0.000000 -0.000002 -0.000004 -8.728671 10.710558 0.000007 -0.000000 -0.000000 0.000000 -0.000680 9.278137 -0.000000 0.000000 -0.000001 
0.000006 104.270477 1.554256 0.000010 0.000003 -0.000113 -0.000005 10.181587 0.131522 0.000001 -0.000003 0.000084 -0.000000 9.893967 -1.470711 0.000001 0.000000 -0.000000 -0.000000 9.220802 -1.370642 0.000000 -0.000000 -0.000000 0.000001 16.740433 -2.049030 0.000000 -0.000000 -0.000000 0.000000 9.617859 1.685014 0.000000 0.000000 0.000000 0.000002 22.037384 7.501101 0.000000 -0.000000 0.000000 -4.569968 11.014880 -2.160881 0.000008 0.000001 -0.000038 -10.592846 -0.524807 -2.231818 75.443135 45.408925 -35.866129 -27.841534 0.000002 0.000553 -41.874893 101.687959 50.334239 -28.328833 0.000007 0.000019 -0.000323 -0.000043 0.000008 -2.464434 -1.574019 2.682357 164.716460 -40.255567 223.110889 -3.214756 -1.872523 1.924698 129.993253 -8.474985 156.885224 -2.654524 -1.527709 1.513072 129.762256 1.571065 145.547820 -2.018823 -1.152016 1.108070 -0.000006 0.000000 0.000004 -9.108400 -0.517581 2.260195 112.574044 17.845319 -26.551729 -3.700074 0.000307 0.001551 104.273261 13.138517 -16.821216 -2.850076 0.000375 -0.000227 101.125868 9.774669 -11.869354 -2.772158 -0.000015 -0.000019 -0.000001 0.000001 0.000001 -9.532587 0.000289 0.000296 106.228682 12.585435 -16.901831 -3.700045 0.000356 0.003999 103.800277 6.517200 -8.193471 -2.950041 0.000356 -0.001801 100.450807 7.470684 -8.960955 -2.946624 0.000015 -0.000167 -0.000000 0.000000 -0.000000 -9.103695 -0.042747 -1.864810 105.990814 14.422091 -19.002044 -3.379304 0.000344 -0.000749 106.355922 5.584955 -7.476931 -2.889738 0.000350 0.000692 106.707881 4.665777 -6.328521 -2.638830 -0.000002 0.000951 0.000004 -0.000001 -0.000001 -8.076749 -0.486373 -3.805960 99.429577 14.879890 -17.343298 -3.600025 0.000298 -0.003469 101.313712 4.558407 -5.149047 -2.100000 0.000319 -0.005431 103.898659 3.370369 -4.034076 -2.115778 -0.000052 -0.003665 0.000001 0.000002 -0.000002 4.570446 11.014691 -2.160851 -0.000018 0.000010 -0.000021 10.592466 -0.524471 -2.232405 73.428188 -35.875514 27.145042 27.841825 0.000013 -0.000192 111.655124 -78.205625 100.256256 28.328829 -0.000033 0.000012 0.000025 -0.000090 -0.000002 2.466238 -1.576056 2.681848 195.411944 20.377279 -279.831211 3.217489 -1.871922 1.916572 131.497739 4.028475 199.084114 2.656111 -1.528573 1.514458 157.940762 -24.325261 38.409545 2.020887 -1.154061 1.115147 0.000001 0.000004 0.000004 9.109427 -0.517891 2.259765 95.091150 -30.831085 33.530379 3.700057 0.000151 -0.000440 87.547985 -20.114798 19.305410 2.850071 0.000190 0.000206 86.931526 -15.225999 14.438987 2.774887 -0.000030 -0.000028 -0.000002 -0.000000 0.000000 9.533475 0.000216 -0.000077 88.791209 -20.617807 20.187256 3.700039 0.000190 -0.000387 89.241865 -11.912320 11.754189 2.950067 0.000173 -0.000182 90.698471 -16.120580 16.318741 2.952887 -0.000029 0.000065 0.000003 0.000000 0.000001 9.104602 -0.042857 -1.865217 88.214195 -19.467117 18.882500 3.150041 0.000215 -0.000105 92.750520 -11.099348 11.643608 2.950025 0.000195 -0.000091 96.052581 -13.017867 14.458524 2.644313 0.000030 0.000055 -0.000001 -0.000001 -0.000001 8.077851 -0.486722 -3.806405 75.228871 -19.971301 15.926326 3.600018 0.000166 0.014556 78.238430 -13.251379 11.209784 2.100043 0.000180 0.007560 82.071157 -14.071263 12.693305 2.125490 -0.000003 0.007518 -0.000002 0.000001 -0.000001 -8.207786 -6.751667 -1.599560 -0.077001 -0.000003 0.000080 -0.000002 -44.370110 0.345938 0.153719 -0.000000 -0.000000 0.000000 -44.423679 -3.043532 -0.076700 0.000000 -0.000002 -0.000006 -8.728667 10.710559 -0.000009 -0.000000 -0.000000 -0.000001 -0.000679 9.278123 0.000000 -0.000000 -0.000000 8.207792 -6.751710 -1.599556 -0.074518 -0.000003 0.000081 -0.000002 -44.370014 0.346960 0.148822 0.000002 0.000000 -0.000001 -44.423664 -3.044403 -0.074314 0.000000 -0.000002 -0.000004 -8.728671 10.710558 0.000007 -0.000000 -0.000000 0.000000 -0.000680 9.278137 -0.000000 0.000000 -0.000001 
